<svg width="13" height="12" viewBox="0 0 13 12" fill="none" xmlns="http://www.w3.org/2000/svg">
<path d="M5.89301 10.8841L8.89384 7.88331C9.09426 7.68289 9.20801 7.40664 9.20801 7.11956L9.20801 1.70831C9.20801 1.11248 8.72051 0.624975 8.12468 0.624975L3.24967 0.624974C2.81634 0.624974 2.42634 0.884975 2.25301 1.28039L0.487175 5.40247C0.0321745 6.47497 0.817591 7.66664 1.98217 7.66664L5.04259 7.66664L4.52801 10.1475C4.47384 10.4183 4.55509 10.6946 4.75009 10.8896C5.06967 11.2037 5.57884 11.2037 5.89301 10.8841ZM11.3747 0.624975C10.7788 0.624975 10.2913 1.11248 10.2913 1.70831L10.2913 6.04164C10.2913 6.63748 10.7788 7.12498 11.3747 7.12498C11.9705 7.12498 12.458 6.63748 12.458 6.04164L12.458 1.70831C12.458 1.11248 11.9705 0.624975 11.3747 0.624975Z" fill="#CD5444"/>
</svg>
