<svg width="13" height="12" viewBox="0 0 13 12" fill="none" xmlns="http://www.w3.org/2000/svg">
<path d="M5.89301 1.11586L8.89384 4.11669C9.09426 4.31711 9.20801 4.59336 9.20801 4.88044V10.2917C9.20801 10.8875 8.72051 11.375 8.12467 11.375H3.24967C2.81634 11.375 2.42634 11.115 2.25301 10.7196L0.487174 6.59752C0.0321741 5.52502 0.817591 4.33336 1.98217 4.33336H5.04259L4.52801 1.85252C4.47384 1.58169 4.55509 1.30544 4.75009 1.11044C5.06967 0.796274 5.57884 0.796274 5.89301 1.11586ZM11.3747 11.375C10.7788 11.375 10.2913 10.8875 10.2913 10.2917V5.95836C10.2913 5.36252 10.7788 4.87502 11.3747 4.87502C11.9705 4.87502 12.458 5.36252 12.458 5.95836V10.2917C12.458 10.8875 11.9705 11.375 11.3747 11.375Z" fill="#A641FF"/>
</svg>
