<svg width="337" height="89" viewBox="0 0 337 89" fill="none" xmlns="http://www.w3.org/2000/svg">
<path d="M56.9228 41.5337L94.9792 74.0743H18.8663L56.9228 41.5337Z" fill="white"/>
<path d="M56.9229 58.5913L71.0536 74.1663L0 88.9996L56.9229 58.5913Z" fill="#0D0314"/>
<path d="M56.5131 41.5337L68.7896 51.917L0 88.8149L56.5131 41.5337Z" fill="white"/>
<path d="M71.3856 47.4668L109.442 15.2043H33.3292L71.3856 47.4668Z" fill="white"/>
<path d="M71.7564 30.4087L85.887 14.8337L14.8335 0.000360489L71.7564 30.4087Z" fill="#060510"/>
<path d="M71.3466 47.2817L83.6231 36.8984L14.8335 0.000492096L71.3466 47.2817Z" fill="white"/>
<path d="M126.068 60.7315C126.623 60.7315 127.007 60.6462 127.22 60.4755C127.433 60.3048 127.54 60.0168 127.54 59.6115C127.54 59.1848 127.433 58.8862 127.22 58.7155C127.007 58.5235 126.623 58.4275 126.068 58.4275H108.82V72.1875H97.6202V49.7875H133.908C135.38 49.7875 136.553 50.2248 137.428 51.0995C138.303 51.9742 138.74 53.1475 138.74 54.6195V64.6995C138.74 65.9795 138.356 67.0035 137.588 67.7715C136.841 68.5182 135.828 68.8915 134.548 68.8915H110.676V65.5635C110.676 64.0915 111.113 62.9182 111.988 62.0435C112.884 61.1688 114.057 60.7315 115.508 60.7315H126.068ZM140.651 49.7875H151.851V63.7075H178.571V72.1875H145.483C144.011 72.1875 142.838 71.7502 141.963 70.8755C141.089 70.0008 140.651 68.8275 140.651 67.3555V49.7875ZM216.631 49.7875C218.103 49.7875 219.276 50.2248 220.151 51.0995C221.025 51.9742 221.463 53.1475 221.463 54.6195V67.3555C221.463 68.8275 221.025 70.0008 220.151 70.8755C219.276 71.7502 218.103 72.1875 216.631 72.1875L185.015 72.2195C183.564 72.2195 182.401 71.7822 181.527 70.9075C180.652 70.0115 180.215 68.8382 180.215 67.3875V54.5875C180.215 53.1368 180.652 51.9742 181.527 51.0995C182.401 50.2248 183.564 49.7875 185.015 49.7875H216.631ZM210.263 63.5795V58.4275H191.415V63.5795H210.263ZM223.402 72.2195V49.7875H259.53C260.298 49.7875 260.991 49.9155 261.61 50.1715C262.25 50.4062 262.794 50.7475 263.242 51.1955C263.69 51.6435 264.031 52.1875 264.266 52.8275C264.522 53.4462 264.65 54.1395 264.65 54.9075V67.0675C264.65 67.8355 264.522 68.5395 264.266 69.1795C264.031 69.7982 263.69 70.3315 263.242 70.7795C262.794 71.2275 262.25 71.5795 261.61 71.8355C260.991 72.0702 260.298 72.1875 259.53 72.1875L223.402 72.2195ZM234.602 58.4275V63.5795H251.85C252.341 63.5795 252.725 63.4408 253.002 63.1635C253.301 62.8648 253.45 62.4702 253.45 61.9795V60.0275C253.45 59.5368 253.301 59.1528 253.002 58.8755C252.725 58.5768 252.341 58.4275 251.85 58.4275H234.602ZM306.942 49.7875L307.678 56.5075H277.758V57.9475H307.39V64.0275H277.758V65.4675H307.678L306.942 72.1875H271.358C269.907 72.1875 268.744 71.7502 267.87 70.8755C266.995 70.0008 266.558 68.8382 266.558 67.3875V54.5875C266.558 53.1368 266.995 51.9742 267.87 51.0995C268.744 50.2248 269.907 49.7875 271.358 49.7875H306.942Z" fill="white"/>
</svg>
