<svg width="33" height="54" viewBox="0 0 33 54" fill="none" xmlns="http://www.w3.org/2000/svg">
<path d="M9.42 49.306H12.5V51H7.66V43.3H12.445V44.994H9.42V46.27H12.17V47.942H9.42V49.306ZM16.188 51.154C14.571 51.154 13.537 50.384 13.108 49.251L14.626 48.371C14.901 49.009 15.374 49.438 16.243 49.438C17.079 49.438 17.288 49.108 17.288 48.811C17.288 48.338 16.848 48.151 15.693 47.832C14.549 47.513 13.427 46.963 13.427 45.489C13.427 44.004 14.681 43.146 16.012 43.146C17.277 43.146 18.267 43.751 18.828 44.884L17.343 45.753C17.079 45.203 16.716 44.862 16.012 44.862C15.462 44.862 15.187 45.137 15.187 45.445C15.187 45.797 15.374 46.039 16.573 46.402C17.739 46.754 19.048 47.161 19.048 48.789C19.048 50.274 17.86 51.154 16.188 51.154ZM23.5479 51.154C21.2269 51.154 19.5439 49.416 19.5439 47.15C19.5439 44.884 21.2269 43.146 23.5479 43.146C24.9449 43.146 26.1769 43.839 26.8479 44.928L25.3299 45.808C24.9889 45.214 24.3289 44.862 23.5479 44.862C22.1839 44.862 21.3039 45.775 21.3039 47.15C21.3039 48.525 22.1839 49.438 23.5479 49.438C24.3289 49.438 24.9999 49.086 25.3299 48.492L26.8479 49.372C26.1879 50.461 24.9559 51.154 23.5479 51.154Z" fill="#696969"/>
<circle cx="16.5" cy="16.5" r="15.5" stroke="#696969" stroke-width="2"/>
<line x1="9.78313" y1="22.3033" x2="21.8039" y2="10.2825" stroke="#696969" stroke-width="2"/>
<line x1="10.7071" y1="10.2929" x2="22.7279" y2="22.3137" stroke="#696969" stroke-width="2"/>
</svg>
